<?xml version="1.0" encoding="UTF-8" standalone="no"?>
<svg
   xmlns:dc="http://purl.org/dc/elements/1.1/"
   xmlns:cc="http://creativecommons.org/ns#"
   xmlns:rdf="http://www.w3.org/1999/02/22-rdf-syntax-ns#"
   xmlns:svg="http://www.w3.org/2000/svg"
   xmlns="http://www.w3.org/2000/svg"
   xmlns:sodipodi="http://sodipodi.sourceforge.net/DTD/sodipodi-0.dtd"
   xmlns:inkscape="http://www.inkscape.org/namespaces/inkscape"
   width="56.309799"
   height="65.988838"
   viewBox="0 0 56.309799 65.988838"
   fill="none"
   version="1.1"
   id="svg10"
   sodipodi:docname="osum.svg"
   inkscape:version="1.0.1 (3bc2e813f5, 2020-09-07)">
  <metadata
     id="metadata16">
    <rdf:RDF>
      <cc:Work
         rdf:about="">
        <dc:format>image/svg+xml</dc:format>
        <dc:type
           rdf:resource="http://purl.org/dc/dcmitype/StillImage" />
        <dc:title></dc:title>
      </cc:Work>
    </rdf:RDF>
  </metadata>
  <defs
     id="defs14" />
  <sodipodi:namedview
     pagecolor="#ffffff"
     bordercolor="#666666"
     borderopacity="1"
     objecttolerance="10"
     gridtolerance="10"
     guidetolerance="10"
     inkscape:pageopacity="0"
     inkscape:pageshadow="2"
     inkscape:window-width="1918"
     inkscape:window-height="1054"
     id="namedview12"
     showgrid="false"
     fit-margin-top="0"
     fit-margin-left="0"
     fit-margin-right="0"
     fit-margin-bottom="0"
     inkscape:window-x="0"
     inkscape:window-y="24"
     inkscape:window-maximized="0"
     inkscape:current-layer="svg10" />
  <path
     d="m 56.3098,38.843635 -6.9712,-0.0102 c -0.0867,0.4896 -0.1886,0.9741 -0.3059,1.4585 l -0.0153,0.0663 -0.0153,0.0663 c -0.6018,2.2948 -1.5605,4.4265 -2.8558,6.3388 -1.2953,1.9124 -2.9068,3.5748 -4.7885,4.9364 -3.682,2.6671 -8.2461,4.0746 -13.2029,4.0746 -4.9568,0 -9.521,-1.4075 -13.2029,-4.0746 -1.8817,-1.3616 -3.4932,-3.024 -4.7885,-4.9364 -1.29529,-1.9123 -2.25402,-4.044 -2.85577,-6.3388 l -0.0153,-0.0663 -0.0153,-0.0663 c -0.11729,-0.4844 -0.21928,-0.9689 -0.30597,-1.4585 L 0,38.843635 c 0.137689,3.6207 0.841435,7.0477 2.10104,10.2145 1.36159,3.4168 3.33003,6.4306 5.84924,8.9651 2.52432,2.5345 5.51772,4.5081 8.90392,5.8646 3.483,1.3973 7.2822,2.101 11.3007,2.101 4.0185,0 7.8228,-0.7088 11.3007,-2.101 3.3861,-1.3565 6.3847,-3.3301 8.9039,-5.8646 2.5243,-2.5345 4.4928,-5.5483 5.8493,-8.9651 1.2596,-3.1668 1.9684,-6.5989 2.101,-10.2145 z m -2.101,-21.913 c -1.3616,-3.4167 -3.3301,-6.4306 -5.8493,-8.96506 -2.5243,-2.5345 -5.5178,-4.50804 -8.9039,-5.86454 C 35.9726,0.703745 32.1734,0 28.1549,0 24.1364,0 20.3321,0.708845 16.8542,2.101035 c -3.3862,1.3565 -6.3847,3.33004 -8.90392,5.86454 -2.5243,2.53446 -4.49275,5.54836 -5.84924,8.96506 -1.259605,3.1618 -1.963351,6.5938 -2.10104,10.2145 l 6.97116,0.0102 c 0.08669,-0.4895 0.18868,-0.974 0.30597,-1.4584 l 0.0153,-0.0663 0.0153,-0.0663 c 0.60175,-2.2948 1.56048,-4.4265 2.85577,-6.3388 1.2953,-1.9124 2.9068,-3.5749 4.7885,-4.9364 3.6819,-2.6671 8.2461,-4.0746 13.2029,-4.0746 4.9568,0 9.5209,1.4075 13.2029,4.0746 1.8817,1.3615 3.4932,3.024 4.7885,4.9364 1.2953,1.9123 2.254,4.044 2.8558,6.3388 l 0.0153,0.0663 0.0153,0.0663 c 0.1173,0.4844 0.2192,0.9689 0.3059,1.4584 l 6.9712,-0.0102 c -0.1326,-3.6207 -0.8414,-7.0476 -2.101,-10.2145 z m -17.2061,13.4018 c 2.3305,5.0486 0.8261,10.6123 -3.9267,14.5237 -4.7528,3.9114 -10.5052,4.3142 -15.0081,1.0505 -0.5151,-0.3927 -1.0097,-0.8109 -1.4738,-1.2494 l 5.681,-4.656 -1.0659,-1.3004 -0.0255,-0.0357 c -0.0714,-0.0866 -0.1376,-0.1784 -0.209,-0.2702 -0.0102,-0.0153 -0.0204,-0.0306 -0.0357,-0.0459 -0.0051,-0.0102 -0.0153,-0.0204 -0.0204,-0.0255 l -0.1989,-0.2754 c -0.5406,-0.7547 -1.0199,-1.5656 -1.433,-2.4223 -2.3152,-5.0588 -0.7956,-10.6174 3.9675,-14.5135 4.7681,-3.8961 10.5205,-4.2785 15.0132,-0.9995 0.5049,0.3876 0.9893,0.7955 1.4432,1.2341 l -5.6657,4.6406 1.0404,1.3055 c 0.0713,0.0867 0.1427,0.1785 0.2141,0.2754 l 0.2652,0.3621 c 0.5355,0.7292 1.0199,1.5401 1.4381,2.4019 z"
     fill="#006ab5"
     id="path2" />
</svg>
